<?xml version="1.0" encoding="utf-8"?>
<!-- Generator: Adobe Illustrator 24.1.3, SVG Export Plug-In . SVG Version: 6.00 Build 0)  -->
<svg version="1.1" id="displaySVG" xmlns="http://www.w3.org/2000/svg" xmlns:xlink="http://www.w3.org/1999/xlink" x="0px"
	 y="0px" viewBox="0 0 100 100" style="enable-background:new 0 0 100 100;" xml:space="preserve" width="200" height="200">
<style type="text/css">
	.st0{fill:#EBEBEB;}
</style>
<g>
	<path class="st0" d="M90.6,3.7H9.4C4.2,3.7,0,7.9,0,13v59.9c0,5.2,4.2,9.4,9.4,9.4h21.3v11.5h-8.1c-0.7,0-1.3,0.6-1.3,1.3
		c0,0.7,0.6,1.3,1.3,1.3h53.8c0.7,0,1.3-0.6,1.3-1.3c0-0.7-0.6-1.3-1.3-1.3H70V82.3h20.6c5.2,0,9.4-4.2,9.4-9.4V13
		C100,7.9,95.8,3.7,90.6,3.7z M9.4,5.3h81.2c4.3,0,7.7,3.5,7.7,7.7v53.6H1.7V13C1.7,8.8,5.1,5.3,9.4,5.3z M68.3,93.8H32.4V82.3h35.9
		V93.8z M90.6,80.7H70h-1.7H32.4h-1.7H9.4c-4.3,0-7.7-3.5-7.7-7.7v-4.6h96.7v4.6C98.3,77.2,94.9,80.7,90.6,80.7z"/>
</g>
</svg>
