<?xml version="1.0" encoding="utf-8"?>
<!-- Generator: Adobe Illustrator 25.2.3, SVG Export Plug-In . SVG Version: 6.00 Build 0)  -->
<svg version="1.1" id="displaySVG" xmlns="http://www.w3.org/2000/svg" xmlns:xlink="http://www.w3.org/1999/xlink" x="0px" y="0px"
	 viewBox="0 0 200 200" style="enable-background:new 0 0 200 200;" xml:space="preserve">
<style type="text/css">
	.st0{fill:#FFE855;}
</style>
<g>
	<path class="st0" d="M181.2,7.3H18.8C8.4,7.3,0,15.7,0,25.9v119.8c0,10.4,8.4,18.8,18.8,18.8h42.6v23H45.2c-1.4,0-2.6,1.2-2.6,2.6
		c0,1.4,1.2,2.6,2.6,2.6h107.6c1.4,0,2.6-1.2,2.6-2.6c0-1.4-1.2-2.6-2.6-2.6H140v-23h41.2c10.4,0,18.8-8.4,18.8-18.8V25.9
		C200,15.7,191.6,7.3,181.2,7.3z M18.8,10.5h162.4c8.6,0,15.4,7,15.4,15.4v107.2H3.4V25.9C3.4,17.5,10.2,10.5,18.8,10.5z
		 M136.6,187.5H64.8v-23h71.8V187.5z M181.2,161.3H140h-3.4H64.8h-3.4H18.8c-8.6,0-15.4-7-15.4-15.4v-9.2h193.4v9.2
		C196.6,154.3,189.8,161.3,181.2,161.3z"/>
</g>
</svg>
