<?xml version="1.0" encoding="utf-8"?>
<!-- Generator: Adobe Illustrator 25.2.3, SVG Export Plug-In . SVG Version: 6.00 Build 0)  -->
<svg version="1.1" id="lock" xmlns="http://www.w3.org/2000/svg" xmlns:xlink="http://www.w3.org/1999/xlink" x="0px" y="0px"
	 viewBox="0 0 32 32" style="enable-background:new 0 0 32 32;" xml:space="preserve">
<style type="text/css">
	.st0{fill:#DDDDDD;}
	.st1{fill:#FFE855;}
</style>
<g>
	<path class="st0" d="M-20.1,5.4c-4.4-3.2-9.5-4.9-14.9-4.9s-10.5,1.7-14.9,4.9c-0.9,0.7-1.1,2-0.4,2.9s2,1.1,2.9,0.4
		C-43.8,6-39.5,4.6-35,4.6s8.8,1.4,12.4,4.1c0.4,0.3,0.8,0.4,1.2,0.4c0.6,0,1.2-0.3,1.6-0.8C-19,7.4-19.2,6.1-20.1,5.4z"/>
	<path class="st0" d="M-23.5,11.9c-3.2-2.6-7.3-4.1-11.5-4.1s-8.3,1.5-11.5,4.1c-0.9,0.7-1,2-0.3,2.9c0.4,0.5,1,0.7,1.6,0.7
		c0.5,0,0.9-0.2,1.3-0.5c2.5-2.1,5.7-3.2,8.9-3.2s6.4,1.1,8.9,3.2c0.9,0.7,2.2,0.6,2.9-0.3C-22.5,13.9-22.6,12.6-23.5,11.9z"/>
	<path class="st0" d="M-35,15.1c-3.1,0-6,1.2-8.2,3.5c-0.8,0.8-0.8,2.1,0,2.9c0.4,0.4,0.9,0.6,1.4,0.6s1.1-0.2,1.5-0.6
		c1.4-1.5,3.3-2.3,5.3-2.3s3.9,0.8,5.3,2.3c0.8,0.8,2.1,0.8,2.9,0.1c0.8-0.8,0.8-2.1,0.1-2.9C-29,16.3-31.9,15.1-35,15.1z"/>
	<path class="st1" d="M-35,22.5c-2.2,0-4,1.8-4,4s1.8,4,4,4s4-1.8,4-4S-32.8,22.5-35,22.5z"/>
</g>
<path class="st1" d="M26,13.9V10c0-5.5-4.5-10-10-10S6,4.5,6,10v3.9c-1.1,0.7-1.9,1.9-1.9,3.3v10.9C4.1,30.3,5.9,32,8,32h16
	c2.1,0,3.9-1.7,3.9-3.9V17.3C27.9,15.9,27.1,14.6,26,13.9z M16,4.1c3.3,0,5.9,2.7,5.9,5.9v3.4H10.1V10C10.1,6.7,12.7,4.1,16,4.1z"/>
</svg>
