<?xml version="1.0" encoding="utf-8"?>
<!-- Generator: Adobe Illustrator 24.1.2, SVG Export Plug-In . SVG Version: 6.00 Build 0)  -->
<svg version="1.1" xmlns="http://www.w3.org/2000/svg" xmlns:xlink="http://www.w3.org/1999/xlink" x="0px" y="0px"
	 viewBox="0 0 10 12" style="enable-background:new 0 0 10 12;" xml:space="preserve">
<style type="text/css">
	.st0{fill:none;stroke:#000000;stroke-width:2;stroke-miterlimit:10;}
	.st1{stroke:#000000;stroke-width:2;stroke-miterlimit:10;}
	.st2{stroke:#FFFFFF;stroke-miterlimit:10;}
	.st3{fill:none;stroke:#000000;stroke-miterlimit:10;}
	.st4{fill:#FFFFFF;stroke:#000000;stroke-miterlimit:10;}
	.st5{fill:#040000;}
	.st6{fill:#333333;}
	.st7{fill:#0F4C81;}
	.st8{fill:#555555;}
	.st9{opacity:0.3;fill:#040000;enable-background:new    ;}
	.st10{fill:#EFEFEF;}
	.st11{fill:#EBEBEB;}
	.st12{fill:#FFFFFF;}
	.st13{fill:#089E08;}
	.st14{fill:#087F08;}
	.st15{fill:#021D34;}
	.st16{fill:#BCBCBC;}
	.st17{fill:#FFFFFF;stroke:#555555;stroke-width:0.32;stroke-miterlimit:10;}
	.st18{fill:#777777;}
</style>
<g id="레이어_2">
	
		<image style="overflow:visible;" width="255" height="198" xlink:href="B38F4E1D.jpg"  transform="matrix(0.2139 0 0 0.2139 162.3756 69.3347)">
	</image>
</g>
<g id="레이어_1">
	<g>
		<path class="st0" d="M394.2-133.8c0,5.7-4.6,10.2-10.2,10.2s-10.2-4.6-10.2-10.2c0-5.6,4.6-10.2,10.2-10.2v-5.9
			c-8.8,0-16,7.2-16,16s7.2,16,16,16s16-7.2,16-16L394.2-133.8L394.2-133.8z"/>
		<path class="st1" d="M387-152.9v5.9c5.6,0,10.2,4.5,10.2,10.1h5.8C403-145.8,395.9-152.9,387-152.9z"/>
	</g>
	<g>
		<path class="st1" d="M390.1-92.9c0,4.9-3.9,8.8-8.6,8.8c-4.8,0-8.6-4-8.6-8.8s3.9-8.8,8.6-8.8v-5.1c-7.4,0-13.5,6.2-13.5,13.8
			s6,13.8,13.5,13.8S395-85.4,395-93L390.1-92.9C390.1-93,390.1-93,390.1-92.9z"/>
		<path class="st1" d="M386.5-111.2v5.1c4.7,0,8.5,3.9,8.6,8.7h4.9C400-105,394-111.2,386.5-111.2z"/>
	</g>
	<path class="st2" d="M310.3-148.7h-28.9c-0.9,0-1.6,0.7-1.6,1.6v18.6c0,0.9,0.7,1.6,1.6,1.6h9.6l-0.7,6.2h-1.4
		c-0.9,0-1.7,0.8-1.7,1.7v0.6c0,0.9,0.8,1.7,1.7,1.7h12.6c0.9,0,1.7-0.8,1.7-1.7v-0.6c0-0.9-0.8-1.7-1.7-1.7h-1.2l-0.7-6.2h10.6
		c0.9,0,1.6-0.7,1.6-1.6v-18.6C311.8-148,311.1-148.7,310.3-148.7z M308.5-130h-25.1v-15.6h25.1V-130z"/>
	<path class="st2" d="M302.7-105.8h-18c-0.6,0-1,0.4-1,1v11.6c0,0.5,0.4,1,1,1h6l-0.4,3.9h-0.9c-0.6,0-1.1,0.5-1.1,1.1v0.4
		c0,0.6,0.5,1.1,1.1,1.1h7.9c0.6,0,1.1-0.5,1.1-1.1v-0.4c0-0.6-0.5-1.1-1.1-1.1h-0.8l-0.4-3.9h6.6c0.6,0,1-0.4,1-1v-11.6
		C303.7-105.3,303.2-105.8,302.7-105.8z M301.6-94.1h-15.7v-9.7h15.7V-94.1z"/>
	<g>
		<rect x="358.7" y="-149.9" class="st2" width="0" height="1.1"/>
		<rect x="323.1" y="-146.6" class="st3" width="27.8" height="22.4"/>
		<rect x="321" y="-149.2" class="st4" width="5" height="5"/>
		<rect x="347.9" y="-149.2" class="st4" width="5" height="5"/>
		<rect x="321" y="-126.8" class="st4" width="5" height="5"/>
		<rect x="347.9" y="-126.8" class="st4" width="5" height="5"/>
		<polygon points="340.4,-137.9 340.4,-141.9 327.7,-141.9 327.7,-132.8 333.7,-132.8 333.7,-128.8 346.4,-128.8 346.4,-137.9 		"/>
	</g>
	<rect x="42.8" y="35.1" class="st2" width="0" height="0.6"/>
	<g>
		<polygon points="112.9,87.5 109.3,87.5 99.9,97.5 109.3,107.5 112.9,107.5 103.5,97.5 		"/>
		<polygon points="110.5,97.5 119.9,87.5 116.4,87.5 107,97.5 116.4,107.5 119.9,107.5 		"/>
	</g>
	<g>
		<path d="M344.1,50.4L344.1,50.4c-0.2,0.2-0.3,0.3-0.3,0.6v12.9c0,0.4-0.4,0.7-0.9,0.7h-24.7c-0.5,0-0.9-0.3-0.9-0.7V51.4
			c0-0.2-0.1-0.4-0.3-0.6l0,0c-0.6-0.4-1.5-0.1-1.5,0.6v14c0,0.4,0.4,0.7,0.9,0.7h28.3c0.5,0,0.9-0.3,0.9-0.7V51
			C345.6,50.4,344.7,50,344.1,50.4z"/>
		<path d="M344,42.2h-26.8c-0.9,0-1.6,0.6-1.6,1.4v1.1v1.4c0,0.4,0.2,0.8,0.5,1c0.4,0.3,0.8,0.6,1.2,0.9c2.9,2.2,4.3,3.3,9.7,7.3
			l2.2,1.6c0.5,0.4,1.4,0.4,1.9,0l12.7-9.4l1.2-0.9c0.4-0.3,0.5-0.6,0.5-1v-1.4v-0.8C345.6,42.8,344.9,42.2,344,42.2z M343.3,46.1
			l-12,8.9c-0.6,0.4-1.5,0.4-2.1,0c-3.5-2.7-7.8-5.9-11.3-8.5c-0.3-0.3-0.5-0.6-0.5-1v-0.3c0-0.8,0.7-1.4,1.6-1.4h23.3
			c0.9,0,1.6,0.6,1.6,1.4C343.8,45.5,343.6,45.8,343.3,46.1z"/>
	</g>
	<g>
		<rect x="244.3" y="-143.9" width="11.3" height="5"/>
		<rect x="244.3" y="-136.4" width="20" height="5"/>
		<rect x="250.4" y="-128.9" width="13.8" height="5"/>
	</g>
	<path class="st5" d="M378.2-20.9c0,0-0.3-0.1-1-0.2c-0.8-0.1-1,0.7-1,0.7l-1.4,13.3c-1,4.7-5.2,4-5.2,4c-4.6-0.5-4.3-5.3-4.3-5.3
		l1.8-16.2c0.6-2.8,3-2.4,3-2.4c2.6,0.6,2.4,3,2.4,3l-1.6,14.3c0,0-0.1,0.4-0.6,0.4s-0.5-0.7-0.5-0.7s1-9.8,1.1-10.8
		c0.1-1-0.4-1.2-0.4-1.2s-0.1-0.2-1.1-0.3c-1-0.1-1,0.8-1,0.8l-1.1,11c0,0-1.3,4.1,2.5,4.6s3.8-3.5,3.8-3.5l1.4-14.2
		c0.3-6.2-4.5-6.1-4.5-6.1c-6.1-0.3-5.8,4.5-5.8,4.5L362.9-9c0,0-1.9,7.3,6.3,8.5c8.1,1.2,8.2-6.3,8.2-6.3s1.3-12,1.4-13
		C378.7-20.6,378.2-20.9,378.2-20.9z"/>
	<g>
		<path class="st6" d="M26.3,17.2c0,1,0.8,1.9,1.9,1.9h17.5c1.2,0,2.2-1,2.2-2.2V-3.2H26.3V17.2L26.3,17.2z M42.1,1.2
			c0-0.4,0.3-0.8,0.7-0.8s0.7,0.3,0.7,0.8v13.4c0,0.4-0.3,0.8-0.7,0.8s-0.7-0.3-0.7-0.8V1.2z M36.6,1.2c0-0.4,0.3-0.8,0.7-0.8
			S38,0.7,38,1.2v13.4c0,0.4-0.3,0.8-0.7,0.8s-0.7-0.3-0.7-0.8V1.2z M31.1,1.2c0-0.4,0.3-0.8,0.7-0.8s0.7,0.3,0.7,0.8v13.4
			c0,0.4-0.3,0.8-0.7,0.8s-0.7-0.3-0.7-0.8V1.2z"/>
		<path class="st6" d="M47.4-8.5h-5.1c-0.1-1.4-1.1-2.4-2.5-2.4h-5.2c-1.4,0-2.5,1.1-2.6,2.4h-5.1c-0.4,0-0.7,0.3-0.7,0.8v1.5
			c0,0.4,0.3,0.8,0.7,0.8h20.5c0.4,0,0.7-0.3,0.7-0.8v-1.5C48.2-8.1,47.8-8.5,47.4-8.5z"/>
	</g>
	<path d="M162.4,45.3l-0.8-1.1c-0.2-0.3-0.6-0.3-0.8,0l-4.3,5.9l-2.3-3.2c-0.2-0.3-0.6-0.3-0.8,0l-0.8,1.1c-0.2,0.3-0.2,0.8,0,1.1
		l3.5,4.8c0.2,0.2,0.4,0.3,0.6,0.2c0.1,0,0.1-0.1,0.2-0.2l5.4-7.4C162.6,46,162.6,45.6,162.4,45.3z"/>
	<path class="st7" d="M79.1-9l0.1,31.3c0,1.5,1.9,2.3,2.9,1.2l16-15.3c1.2-1.2,1.2-3.1,0-4.3L81.9-11.5c-1.1-1-2.9-0.3-2.9,1.2
		L79.1-9z"/>
	<path class="st5" d="M300,47h-8.7l-4-3.9h-9.4c-2.2,0-4,1.7-4,3.8v3.9v2v8.6c0,2.1,1.8,3.8,4,3.8H300c2.2,0,4-1.7,4-3.8V50.8
		C303.9,48.7,302.2,47,300,47z M294.1,55.6c0,0.4-0.4,0.8-0.8,0.8h-3.4v3.2c0,0.4-0.4,0.8-0.8,0.8h-0.3c-0.4,0-0.8-0.3-0.8-0.8v-3.2
		h-3.4c-0.4,0-0.8-0.3-0.8-0.8v-0.3c0-0.4,0.4-0.8,0.8-0.8h3.4v-3.2c0-0.4,0.4-0.8,0.8-0.8h0.3c0.4,0,0.8,0.3,0.8,0.8v3.2h3.4
		c0.4,0,0.8,0.3,0.8,0.8V55.6z"/>
	<g>
		<path class="st8" d="M74.4,108.4V92.6H78c0.5,0,0.7-0.7,0.4-1.1l-5-5.8c-0.4-0.4-1-0.4-1.4,0l-5,5.8c-0.3,0.4-0.1,1,0.4,1h0.4h3.4
			v15.7c0,0.6,0.6,1.1,1.3,1.1h0.4C73.8,109.5,74.4,109,74.4,108.4z"/>
		<path class="st8" d="M81.5,86.6v15.7h-3.6c-0.5,0-0.7,0.7-0.4,1.1l5,5.8c0.4,0.4,1,0.4,1.4,0l5-5.8c0.3-0.4,0.1-1-0.4-1h-0.4h-3.4
			V86.6c0-0.6-0.6-1.1-1.3-1.1H83C82.1,85.5,81.5,85.9,81.5,86.6z"/>
	</g>
	<path class="st7" d="M-113-73.5L-113-73.5h-0.4h-1.4l0,0h-5.3l0,0h-3.7c-0.6,0-0.8,0.8-0.5,1.1l5.1,6.4c0.4,0.4,1,0.4,1.4,0
		l5.1-6.4C-112.2-72.8-112.5-73.5-113-73.5z"/>
	<g>
		<circle class="st9" cx="7.9" cy="-58.6" r="11"/>
		<path class="st10" d="M13.2-59.1l-7.4-4.5c-0.4-0.2-0.9,0-0.9,0.5v9c0,0.4,0.5,0.7,0.9,0.5l7.4-4.5C13.6-58.3,13.6-58.9,13.2-59.1
			z"/>
	</g>
	<path class="st10" d="M302.2,8.3l-5.6-5.6c1.8-1.9,2.9-4.4,2.9-7.2c0-5.8-4.7-10.5-10.5-10.5s-10.5,4.7-10.5,10.5S283.2,6,289,6
		c2.7,0,5.1-1,6.9-2.6l5.6,5.6L302.2,8.3z M279.5-4.5c0-5.2,4.3-9.5,9.5-9.5s9.5,4.3,9.5,9.5S294.2,5,289,5
		C283.7,5,279.5,0.7,279.5-4.5z"/>
	<path class="st10" d="M267.6-3.7L262-9.3c1.8-1.9,2.8-4.4,2.8-7.2c0-5.8-4.7-10.5-10.5-10.5s-10.5,4.7-10.5,10.5S248.5-6,254.3-6
		c2.7,0,5.1-1,6.9-2.6l5.6,5.6L267.6-3.7z M244.8-16.5c0-5.2,4.3-9.5,9.5-9.5c5.2,0,9.5,4.3,9.5,9.5S259.5-7,254.3-7
		C249.1-7,244.8-11.2,244.8-16.5z"/>
	<path class="st10" d="M293.7-22.1l-4.3-4.2c1.4-1.6,2.3-3.6,2.3-5.9c0-4.9-4-8.9-9-8.9s-9,4-9,8.9s4,8.9,9,8.9c2.1,0,4.1-0.7,5.7-2
		l4.3,4.3L293.7-22.1z M282.7-24.7c-4.2,0-7.6-3.4-7.6-7.5s3.4-7.5,7.6-7.5s7.6,3.4,7.6,7.5S286.9-24.7,282.7-24.7z"/>
	<path class="st11" d="M107.3-54.1L95.5-66l11.8-11.8c0.7-0.7,0.7-1.9,0-2.6s-1.9-0.7-2.6,0L92.9-68.6L81-80.4
		c-0.7-0.7-1.9-0.7-2.6,0s-0.7,1.9,0,2.6L90.2-66L78.4-54.1c-0.7,0.7-0.7,1.9,0,2.6c0.7,0.7,1.9,0.7,2.6,0l11.9-11.8l11.9,11.8
		c0.7,0.7,1.9,0.7,2.6,0S108.1-53.4,107.3-54.1z"/>
	<g>
		<path class="st12" d="M128.4-132.7h-10c-2.8,0-5-2.2-5-5v-10c0-2.8,2.2-5,5-5h10c2.8,0,5,2.2,5,5v10
			C133.4-134.9,131.1-132.7,128.4-132.7z"/>
		<path class="st11" d="M127.4-133.7h-8c-2.8,0-5-2.2-5-5v-8c0-2.8,2.2-5,5-5h8c2.8,0,5,2.2,5,5v8
			C132.4-135.9,130.1-133.7,127.4-133.7z"/>
		<path class="st12" d="M130.1-146.4l-1-1.3c-0.3-0.4-0.8-0.4-1.1,0l-6,7l-3.3-3.8c-0.3-0.4-0.8-0.4-1.1,0l-1.1,1.3
			c-0.3,0.4-0.3,0.9,0,1.3l4.9,5.7c0.2,0.3,0.6,0.3,0.8,0.2c0.1,0,0.2-0.1,0.3-0.2l7.6-8.9C130.4-145.5,130.4-146,130.1-146.4z"/>
	</g>
	<g>
		<path class="st12" d="M161.6-132.7h-10c-2.8,0-5-2.2-5-5v-10c0-2.8,2.2-5,5-5h10c2.8,0,5,2.2,5,5v10
			C166.6-134.9,164.4-132.7,161.6-132.7z"/>
		<path class="st13" d="M156.1-133.7c-0.3,0.1-0.7,0.1-1-0.2l-5.4-5.8c-0.4-0.3-0.3-2.8,0-3.1l0.8,0.6c0.4-0.4,0.9-0.4,1.3,0
			l3.9,3.8l7.2-7.1c0.4-0.4,0.3-1,0.6-0.6l2,1.9c0,0,0.1,0.1,0.1,0.3v-2.8c0-2.8-2.2-5-5-5h-8c-2.8,0-5,2.2-5,5v8c0,2.8,2.2,5,5,5h8
			c0.1,0,0.2,0,0.3,0C159.6-133.7,156.2-133.8,156.1-133.7z"/>
		<path class="st14" d="M165.6-138.7v-5.2c0-0.1-0.1-0.3-0.1-0.3l-2-1.9c-0.4-0.4-0.3,0.3-0.6,0.6l-7.2,7.1l-3.9-3.8
			c-0.4-0.4-0.9-0.4-1.3,0l-0.8-0.6c-0.4,0.4-0.4,2.8,0,3.1l5.4,5.8c0.3,0.3,0.7,0.3,1,0.2c0.1,0,3.6,0.1,4.8,0
			C163.5-133.8,165.6-136,165.6-138.7z"/>
		<path class="st12" d="M163.4-146.3l-1.1-1.3c-0.3-0.4-0.8-0.4-1.1,0l-6,7l-3.3-3.8c-0.3-0.4-0.8-0.4-1.1,0l-1.1,1.3
			c-0.3,0.4-0.3,0.9,0,1.3l4.9,5.7c0.2,0.3,0.6,0.3,0.8,0.2c0.1,0,0.2-0.1,0.3-0.2l7.6-8.9C163.7-145.4,163.7-146,163.4-146.3z"/>
	</g>
	<rect x="-118.4" y="39.7" class="st7" width="32.7" height="32.7"/>
	<g>
		<path class="st12" d="M194.7-132.7h-10c-2.8,0-5-2.2-5-5v-10c0-2.8,2.2-5,5-5h10c2.8,0,5,2.2,5,5v10
			C199.7-134.9,197.5-132.7,194.7-132.7z"/>
		<path class="st7" d="M189.1-133.8c-0.3,0.1-0.7,0.1-1-0.2l-5.4-5.8c-0.4-0.3-0.3-2.8,0-3.1l0.9,0.6c0.4-0.4,0.9-0.4,1.3,0l3.9,3.8
			l7.2-7.1c0.4-0.4,0.3-1,0.6-0.6l2,1.9c0,0,0.1,0.1,0.1,0.3v-2.8c0-2.8-2.2-5-5-5h-8c-2.8,0-5,2.2-5,5v8c0,2.8,2.2,5,5,5h8
			c0.1,0,0.2,0,0.3,0C192.7-133.7,189.2-133.8,189.1-133.8z"/>
		<path class="st15" d="M198.7-138.7v-5.2c0-0.1-0.1-0.3-0.1-0.3l-2-1.9c-0.4-0.4-0.3,0.3-0.6,0.6l-7.2,7.1l-3.9-3.8
			c-0.4-0.4-0.9-0.4-1.3,0l-0.8-0.6c-0.4,0.4-0.4,2.8,0,3.1l5.4,5.8c0.3,0.3,0.7,0.3,1,0.2c0.1,0,3.6,0.1,4.8,0
			C196.6-133.9,198.7-136,198.7-138.7z"/>
		<path class="st12" d="M196.5-146.4l-1.1-1.3c-0.3-0.4-0.8-0.4-1.1,0l-6,7l-3.3-3.8c-0.3-0.4-0.8-0.4-1.1,0l-1.1,1.3
			c-0.3,0.4-0.3,0.9,0,1.3l4.9,5.7c0.2,0.3,0.6,0.3,0.8,0.2c0.1,0,0.2-0.1,0.3-0.2l7.6-8.9C196.8-145.5,196.8-146,196.5-146.4z"/>
	</g>
	<path class="st11" d="M-83,116c0.5-0.1,1-0.6,1.1-1.1s-0.3-0.9-0.9-0.9l-4,0.5l1-4.2c0.1-0.5-0.2-1-0.7-1s-1.1,0.4-1.2,0.9
		l-1.1,4.5l-4.4,0.5l1.3-5.3c0.1-0.5-0.2-1-0.7-1s-1.1,0.4-1.2,0.9l-1.4,5.7l-5.3,0.7c-0.5,0.1-1,0.6-1.1,1.1s0.3,0.9,0.9,0.9
		l4.9-0.6l-0.9,3.7l-4.3,0.4c-0.5,0.1-1,0.6-1.1,1.1s0.3,0.9,0.9,0.9l4-0.5l-1,4.2c-0.1,0.5,0.2,1,0.7,1s1.1-0.4,1.2-0.9l1.1-4.5
		l4.4-0.5l-1.3,5.4c-0.1,0.5,0.2,1,0.7,1s1.1-0.4,1.2-0.9l1.4-5.7l5.2-0.6c0.5-0.1,1-0.6,1.1-1.1l0,0c0.1-0.5-0.3-0.9-0.9-0.9
		l-4.9,0.6l0.9-3.7L-83,116z M-90.2,120.4l-4.4,0.5l0.9-3.7l4.4-0.5L-90.2,120.4z"/>
	<path class="st16" d="M28.9,222.4L15,211.3l13.9-11.2c0.2-0.2,0.2-0.6,0-0.8l0,0c-0.2-0.2-0.7-0.2-0.9,0l-14.5,11.5l0,0l-0.5,0.3
		l0.5,0.3l0,0l0,0l0,0L27.9,223c0.3,0.2,0.8,0.2,1,0C29.1,223,29.1,222.6,28.9,222.4z"/>
	<g>
		<circle class="st17" cx="-249" cy="-69.6" r="25"/>
		<polygon class="st18" points="-238,-70.3 -248.3,-70.3 -248.3,-80.6 -249.7,-80.6 -249.7,-70.3 -260,-70.3 -260,-68.9 
			-249.7,-68.9 -249.7,-58.6 -248.3,-58.6 -248.3,-68.9 -238,-68.9 		"/>
	</g>
	<g>
		<path class="st6" d="M127.3-14.2l-0.7,6.6c0,0-0.1,0.8,0.4,1.2s1.1,0.4,1.1,0.4l6.6-0.7l16.4-16.4l-7.5-7.5L127.3-14.2z"/>
		<path class="st6" d="M155.7-31.6l-3.5-3.6c0,0-0.7-1-2.3-0.7c-1.5,0.2-1.7,0.8-1.7,0.8l-3.3,3.2l7.5,7.6l3.3-3.4
			c0,0,0.9-0.6,0.8-2.1C156.5-31.2,155.7-31.6,155.7-31.6z"/>
	</g>
	<g id="레이어_2_1_">
		<g>
			<polygon class="st4" points="34.6,-188.3 34.6,-191.1 32,-191.1 32,-189.6 20.4,-189.6 20.4,-191.1 17.8,-191.1 17.8,-188.3 
				18.9,-188.3 18.9,-179.1 17.8,-179.1 17.8,-176.3 20.4,-176.3 20.4,-177.7 32,-177.7 32,-176.3 34.6,-176.3 34.6,-179.1 
				33.6,-179.1 33.6,-188.3 			"/>
			<polygon points="28,-185 28,-187.1 21.3,-187.1 21.3,-182.3 24.5,-182.3 24.5,-180.1 31.2,-180.1 31.2,-185 			"/>
		</g>
	</g>
	<path class="st16" d="M108.9,222.4L95,211.3l13.9-11.2c0.2-0.2,0.2-0.6,0-0.8l0,0c-0.2-0.2-0.7-0.2-0.9,0l-14.5,11.5l0,0l-0.5,0.3
		l0.5,0.3l0,0l0,0l0,0l14.4,11.5c0.3,0.2,0.8,0.2,1,0C109.1,223,109.1,222.6,108.9,222.4z"/>
	<path class="st16" d="M64,215.8l-14.9-12l14.9-12c0.4-0.3,1.1-0.3,1.4,0.2l0,0c0.3,0.4,0.3,1.1-0.2,1.4l-12.9,10.4l12.9,10.4
		c0.4,0.3,0.5,1,0.2,1.4v0C65.1,216.1,64.4,216.1,64,215.8z"/>
	<g>
		<g>
			<path class="st16" d="M251.2,101.4c-2.7,0-5.1,1.4-6.4,3.6l2.5,2.5c0.6-1.6,2.2-2.7,4-2.7c1.7,0,3.2,1.1,3.9,2.6l2.4-2.5
				C256.2,102.8,253.9,101.4,251.2,101.4z"/>
			<path class="st16" d="M251.2,94.7c-4.7,0-8.8,2.4-10.6,6l2.5,2.6c0.9-2.9,4.2-5.1,8.1-5.1c3.9,0,7.2,2.2,8.1,5.1l2.5-2.6
				C260,97.2,255.9,94.7,251.2,94.7z"/>
			<path class="st16" d="M251.2,88c-6.8,0-12.7,3.4-15,8.2l2.5,2.6c1.3-4.2,6.4-7.4,12.5-7.4c6.1,0,11.2,3.1,12.5,7.4l2.5-2.6
				C263.8,91.4,258,88,251.2,88z"/>
			<path class="st16" d="M251.3,108.2c-0.9,0-1.7,0.7-1.8,1.6c0,0.1,0,0.2,0,0.3c0,0,0,0.1,0,0.1c0,0.5,0.2,0.9,0.5,1.2
				c0.3,0.3,0.8,0.6,1.3,0.6c0.5,0,1-0.2,1.4-0.6c0.3-0.3,0.5-0.7,0.5-1.2c0,0,0-0.1,0-0.1c0-0.2,0-0.4-0.1-0.5
				C252.9,108.8,252.1,108.2,251.3,108.2z"/>
		</g>
		<g>
			<path class="st7" d="M251.2,101.4c-2.7,0-5.1,1.4-6.4,3.6l2.5,2.5c0.6-1.6,2.2-2.7,4-2.7c1.7,0,3.2,1.1,3.9,2.6l2.4-2.5
				C256.2,102.8,253.9,101.4,251.2,101.4z"/>
			<path class="st7" d="M251.2,94.7c-4.7,0-8.8,2.4-10.6,6l2.5,2.6c0.9-2.9,4.2-5.1,8.1-5.1c3.9,0,7.2,2.2,8.1,5.1l2.5-2.6
				C260,97.2,255.9,94.7,251.2,94.7z"/>
			<path class="st7" d="M251.3,108.2c-0.9,0-1.7,0.7-1.8,1.6c0,0.1,0,0.2,0,0.3c0,0,0,0.1,0,0.1c0,0.5,0.2,0.9,0.5,1.2
				c0.3,0.3,0.8,0.6,1.3,0.6c0.5,0,1-0.2,1.4-0.6c0.3-0.3,0.5-0.7,0.5-1.2c0,0,0-0.1,0-0.1c0-0.2,0-0.4-0.1-0.5
				C252.9,108.8,252.1,108.2,251.3,108.2z"/>
		</g>
	</g>
	<path class="st7" d="M265.5,106.7h-0.6c0-0.1,0-0.3,0-0.4c0-1.7-1.3-3.1-2.8-3.1s-2.8,1.4-2.8,3.1c0,0.1,0,0.3,0,0.4h-0.6
		c-0.4,0-0.7,0.3-0.7,0.7v5c0,0.4,0.3,0.7,0.7,0.7h6.7c0.4,0,0.7-0.3,0.7-0.7v-5C266.2,107,265.9,106.7,265.5,106.7z M262.2,104.1
		c1.1,0,2,1,2,2.2c0,0.2,0,0.3,0,0.4h-3.9c0-0.1,0-0.3,0-0.4C260.2,105,261.1,104.1,262.2,104.1z M265.5,112.1
		c0,0.3-0.2,0.5-0.5,0.5h-5.7c-0.3,0-0.5-0.2-0.5-0.5v-4.3c0-0.3,0.2-0.5,0.5-0.5h5.7c0.3,0,0.5,0.2,0.5,0.5V112.1z"/>
	<path class="st7" d="M8.3,4.5H7.8c0-0.1,0-0.3,0-0.4C7.8,2.4,6.5,1,5,1S2.2,2.4,2.2,4.1c0,0.1,0,0.3,0,0.4H1.7C1.3,4.5,1,4.9,1,5.3
		v5C1,10.7,1.3,11,1.7,11h6.7C8.7,11,9,10.7,9,10.3v-5C9,4.9,8.7,4.5,8.3,4.5z M5,1.9c1.1,0,2,1,2,2.2c0,0.2,0,0.3,0,0.4H3
		c0-0.1,0-0.3,0-0.4C3,2.9,3.9,1.9,5,1.9z M8.4,9.9c0,0.3-0.2,0.5-0.5,0.5H2.1c-0.3,0-0.5-0.2-0.5-0.5V5.6c0-0.3,0.2-0.5,0.5-0.5
		h5.7c0.3,0,0.5,0.2,0.5,0.5V9.9z"/>
	<g>
		<ellipse class="st7" cx="-56" cy="24.6" rx="1.3" ry="1.4"/>
		<path class="st7" d="M-60.8,21.9l-1.1-0.5c-0.2-0.1-0.3-0.4-0.2-0.6c0.6-1,2.4-3.4,6.3-3.4c3.9,0,5.6,2.5,6.1,3.5
			c0.1,0.2,0,0.5-0.2,0.6l-1.2,0.5c-0.2,0.1-0.4,0-0.5-0.2c-0.4-0.7-1.5-2.2-4.2-2.2c-2.8,0-4.1,1.6-4.5,2.3
			C-60.4,22-60.6,22-60.8,21.9z"/>
		<path class="st7" d="M-46.8,17.3c-0.2,0.1-0.5,0.1-0.6-0.2c-0.8-1.3-3.6-5.4-8.5-5.4c-4.9,0-8.1,3.8-9,5c-0.2,0.2-0.5,0.3-0.7,0.1
			l-0.9-0.6c-0.2-0.2-0.3-0.5-0.1-0.8c1.1-1.5,4.8-5.9,10.7-5.9c6,0,9.3,4.9,10.3,6.5c0.2,0.3,0.1,0.6-0.2,0.8L-46.8,17.3z"/>
		<path class="st16" d="M-69.9,12.1l-0.8-0.5c-0.3-0.2-0.4-0.6-0.2-0.9c1.2-2,6.1-8.8,15-8.8c8.9,0,13.6,6.8,14.8,8.8
			c0.2,0.3,0.1,0.7-0.2,0.8l-0.8,0.5c-0.3,0.2-0.6,0.1-0.7-0.2c-1.1-1.8-5.2-7.7-13-7.7c-7.9,0-12.2,6-13.3,7.7
			C-69.3,12.2-69.6,12.3-69.9,12.1z"/>
	</g>
	<g>
		<ellipse class="st7" cx="-38.6" cy="-8.5" rx="1.3" ry="1.4"/>
		<path class="st7" d="M-43.5-11.2l-1.1-0.5c-0.2-0.1-0.3-0.4-0.2-0.6c0.6-1,2.4-3.4,6.3-3.4c3.9,0,5.6,2.5,6.1,3.5
			c0.1,0.2,0,0.5-0.2,0.6l-1.2,0.5c-0.2,0.1-0.4,0-0.5-0.2c-0.4-0.7-1.5-2.2-4.2-2.2c-2.8,0-4.1,1.6-4.5,2.3
			C-43.1-11.2-43.3-11.1-43.5-11.2z"/>
		<path class="st16" d="M-29.4-15.8c-0.2,0.1-0.5,0.1-0.6-0.2c-0.8-1.3-3.6-5.4-8.5-5.4c-4.9,0-8.1,3.8-9,5
			c-0.2,0.2-0.5,0.3-0.7,0.1l-0.9-0.6c-0.2-0.2-0.3-0.5-0.1-0.8c1.1-1.5,4.8-5.9,10.7-5.9c6,0,9.3,4.9,10.3,6.5
			c0.2,0.3,0.1,0.6-0.2,0.8L-29.4-15.8z"/>
		<path class="st16" d="M-52.5-21l-0.8-0.5c-0.3-0.2-0.4-0.6-0.2-0.9c1.2-2,6.1-8.8,15-8.8c8.9,0,13.6,6.8,14.8,8.8
			c0.2,0.3,0.1,0.7-0.2,0.8l-0.8,0.5c-0.3,0.2-0.6,0.1-0.7-0.2c-1.1-1.8-5.2-7.7-13-7.7c-7.9,0-12.2,6-13.3,7.7
			C-51.9-20.9-52.2-20.9-52.5-21z"/>
	</g>
	<g>
		<ellipse class="st7" cx="-79.6" cy="-6.8" rx="1.3" ry="1.4"/>
		<path class="st7" d="M-84.5-9.4l-1.1-0.5c-0.2-0.1-0.3-0.4-0.2-0.6c0.6-1,2.4-3.4,6.3-3.4c3.9,0,5.6,2.5,6.1,3.5
			c0.1,0.2,0,0.5-0.2,0.6l-1.2,0.5c-0.2,0.1-0.4,0-0.5-0.2c-0.4-0.7-1.5-2.2-4.2-2.2c-2.8,0-4.1,1.6-4.5,2.3
			C-84.1-9.4-84.3-9.4-84.5-9.4z"/>
		<path class="st7" d="M-70.4-14.1c-0.2,0.1-0.5,0.1-0.6-0.2c-0.8-1.3-3.6-5.4-8.5-5.4c-4.9,0-8.1,3.8-9,5c-0.2,0.2-0.5,0.3-0.7,0.1
			l-0.9-0.6c-0.2-0.2-0.3-0.5-0.1-0.8c1.1-1.5,4.8-5.9,10.7-5.9c6,0,9.3,4.9,10.3,6.5c0.2,0.3,0.1,0.6-0.2,0.8L-70.4-14.1z"/>
		<path class="st7" d="M-93.5-19.3l-0.8-0.5c-0.3-0.2-0.4-0.6-0.2-0.9c1.2-2,6.1-8.8,15-8.8c8.9,0,13.6,6.8,14.8,8.8
			c0.2,0.3,0.1,0.7-0.2,0.8l-0.8,0.5c-0.3,0.2-0.6,0.1-0.7-0.2c-1.1-1.8-5.2-7.7-13-7.7c-7.9,0-12.2,6-13.3,7.7
			C-92.9-19.2-93.3-19.1-93.5-19.3z"/>
	</g>
	<g>
		<ellipse class="st7" cx="-34.7" cy="-32.5" rx="1.3" ry="1.4"/>
		<path class="st16" d="M-39.6-35.2l-1.1-0.5c-0.2-0.1-0.3-0.4-0.2-0.6c0.6-1,2.4-3.4,6.3-3.4c3.9,0,5.6,2.5,6.1,3.5
			c0.1,0.2,0,0.5-0.2,0.6l-1.2,0.5c-0.2,0.1-0.4,0-0.5-0.2c-0.4-0.7-1.5-2.2-4.2-2.2c-2.8,0-4.1,1.6-4.5,2.3
			C-39.2-35.2-39.4-35.1-39.6-35.2z"/>
		<path class="st16" d="M-25.5-39.8c-0.2,0.1-0.5,0.1-0.6-0.2c-0.8-1.3-3.6-5.4-8.5-5.4c-4.9,0-8.1,3.8-9,5
			c-0.2,0.2-0.5,0.3-0.7,0.1l-0.9-0.6c-0.2-0.2-0.3-0.5-0.1-0.8c1.1-1.5,4.8-5.9,10.7-5.9c6,0,9.3,4.9,10.3,6.5
			c0.2,0.3,0.1,0.6-0.2,0.8L-25.5-39.8z"/>
		<path class="st16" d="M-48.6-45l-0.8-0.5c-0.3-0.2-0.4-0.6-0.2-0.9c1.2-2,6.1-8.8,15-8.8c8.9,0,13.6,6.8,14.8,8.8
			c0.2,0.3,0.1,0.7-0.2,0.8l-0.8,0.5c-0.3,0.2-0.6,0.1-0.7-0.2c-1.1-1.8-5.2-7.7-13-7.7c-7.9,0-12.2,6-13.3,7.7
			C-48-44.9-48.3-44.9-48.6-45z"/>
	</g>
</g>
</svg>
