<?xml version="1.0" encoding="utf-8"?>
<!-- Generator: Adobe Illustrator 25.2.3, SVG Export Plug-In . SVG Version: 6.00 Build 0)  -->
<svg version="1.1" id="레이어_1" xmlns="http://www.w3.org/2000/svg" xmlns:xlink="http://www.w3.org/1999/xlink" x="0px"
	 y="0px" viewBox="0 0 32 32" style="enable-background:new 0 0 32 32;" xml:space="preserve">
<style type="text/css">
	.st0{fill:#FFE855;}
</style>
<path class="st0" d="M26,13.9V10c0-5.5-4.5-10-10-10S6,4.5,6,10v3.9c-1.1,0.7-1.9,1.9-1.9,3.3v10.9C4.1,30.3,5.9,32,8,32h16
	c2.1,0,3.9-1.7,3.9-3.9V17.3C27.9,15.9,27.1,14.6,26,13.9z M16,4.1c3.3,0,5.9,2.7,5.9,5.9v3.4H10.1V10C10.1,6.7,12.7,4.1,16,4.1z"/>
</svg>
