<?xml version="1.0" encoding="utf-8"?>
<!-- Generator: Adobe Illustrator 25.2.3, SVG Export Plug-In . SVG Version: 6.00 Build 0)  -->
<svg version="1.1" id="레이어_1" xmlns="http://www.w3.org/2000/svg" xmlns:xlink="http://www.w3.org/1999/xlink" x="0px"
	 y="0px" viewBox="0 0 60 60" style="enable-background:new 0 0 60 60;" xml:space="preserve">
<style type="text/css">
	.st0{fill:url(#SVGID_1_);}
	.st1{fill:#575756;}
</style>
<g>
	<g>
		<linearGradient id="SVGID_1_" gradientUnits="userSpaceOnUse" x1="4.401311e-02" y1="30" x2="58.5571" y2="30">
			<stop  offset="0" style="stop-color:#FFFFFF"/>
			<stop  offset="0" style="stop-color:#00A0F7"/>
			<stop  offset="0.4851" style="stop-color:#67B730"/>
			<stop  offset="1" style="stop-color:#EF5A00"/>
		</linearGradient>
		<path class="st0" d="M50.9,60C50.9,60,50.9,60,50.9,60c-3.5-2.3-9.9-2.5-11.2-2.5H9.8c-3.3,0-5.8-0.8-7.4-2.5
			c-1.5-1.6-2.2-3.9-2.1-7l0-38.5C0.3,3,3.2,0,9.9,0h38.2c6.6,0,9.5,2.9,9.5,9.5v29.3c0,0.4-0.2,7.8,2.1,11.7c0,0,0,0.1,0,0.2
			c0,0.1-0.1,0.1-0.1,0.1h-0.1L58.3,51c-2.9,0-5.3-1.2-7-3.4C49.8,45.5,49,42.5,49,39V8.6H8.5v40.7h30.4c4.2,0,8.1,2.2,10.3,5.8
			c0.2,0.3,0.3,0.5,0.5,0.8c1,1.6,1.2,1.9,1.3,4C51,59.9,50.9,60,50.9,60z"/>
	</g>
	<g>
		<path class="st1" d="M16.3,20.9c1.7,0,3.1,1,3.4,2.6c0,0.2,0.2,0.3,0.4,0.3h0c0.2,0,0.4-0.2,0.4-0.4v-2.2c0-0.2,0.2-0.4,0.4-0.4
			h1.7c0.2,0,0.4,0.2,0.4,0.4v7.6c0,0.2-0.2,0.4-0.4,0.4H21c-0.2,0-0.4-0.2-0.4-0.4v-2.4c0-0.2-0.2-0.4-0.4-0.4l0,0
			c-0.2,0-0.4,0.2-0.4,0.4c-0.2,1.7-1.7,2.8-3.4,2.8h-1.5c-1.9,0-3.4-1.3-3.4-3.3v-1.7c0-2,1.5-3.3,3.4-3.3H16.3z M24.3,29.7v-8.5
			c0-0.2,0.2-0.4,0.4-0.4h1.7c0.2,0,0.4,0.2,0.4,0.4v13.6c0,0.2-0.2,0.4-0.4,0.4H15.7c-0.2,0-0.4,0.2-0.4,0.4v0.2
			c0,0.2,0.2,0.4,0.4,0.4h10.7c0.2,0,0.4,0.2,0.4,0.4V38c0,0.2-0.2,0.4-0.4,0.4H14.1c-0.8,0-1.4-0.6-1.4-1.4v-3.3
			c0-0.2,0.2-0.4,0.4-0.4h10.7c0.2,0,0.4-0.2,0.4-0.4v-0.1c0-0.2-0.2-0.4-0.4-0.4H13.1c-0.2,0-0.4-0.2-0.4-0.4v-1.3
			c0-0.2,0.2-0.4,0.4-0.4h10.7C24.1,30.1,24.3,29.9,24.3,29.7z M17.3,24.5c0-0.8-0.6-1.4-1.5-1.4h-0.4c-0.9,0-1.5,0.6-1.5,1.4v1
			c0,0.8,0.6,1.4,1.5,1.4h0.4c0.9,0,1.5-0.6,1.5-1.4V24.5z"/>
		<path class="st1" d="M34.1,35.5V29c0-0.3,0.2-0.5,0.5-0.5h1.7c0.3,0,0.5,0.2,0.5,0.5v6.5c0,0.3,0.2,0.5,0.5,0.5h2.6
			c0.3,0,0.5-0.2,0.5-0.5L41.3,24c0-0.3-0.2-0.5-0.5-0.5H31c-0.3,0-0.5-0.2-0.5-0.5v-1.5c0-0.3,0.2-0.5,0.5-0.5h12.6
			c0.3,0,0.5,0.2,0.5,0.5v2c0,0,0,0,0,0l-0.9,12c0,0.3,0.2,0.5,0.5,0.5h1.2c0.3,0,0.5,0.2,0.5,0.5V38c0,0.3-0.2,0.5-0.5,0.5H29.8
			c-0.3,0-0.5-0.2-0.5-0.5v-1.5c0-0.3,0.2-0.5,0.5-0.5h3.8C33.9,36,34.1,35.8,34.1,35.5z"/>
	</g>
</g>
</svg>
