<svg xmlns="http://www.w3.org/2000/svg" width="20" height="30" viewBox="0 0 20 30">
  <g id="그룹_1310" data-name="그룹 1310" transform="translate(1951 -6817)">
    <path id="패스_193" data-name="패스 193" d="M529.371,351.962H514.528a2.512,2.512,0,0,0-2.578,2.44v14.051a2.512,2.512,0,0,0,2.578,2.44h14.843a2.512,2.512,0,0,0,2.579-2.44V354.4A2.512,2.512,0,0,0,529.371,351.962Z" transform="translate(-2462.95 6476.106)" fill="#1d1d1b"/>
    <rect id="사각형_261" data-name="사각형 261" width="1.58" height="5.677" rx="0.79" transform="translate(-1941.79 6834.622)" fill="#fff"/>
    <path id="패스_194" data-name="패스 194" d="M529.556,348.121h-.03a1.251,1.251,0,0,1-1.238-1.013,6.1,6.1,0,0,0-11.847,0,1.25,1.25,0,0,1-1.237,1.013h-.03a1.206,1.206,0,0,1-1.228-1.406,8.668,8.668,0,0,1,16.838,0A1.206,1.206,0,0,1,529.556,348.121Z" transform="translate(-2463.365 6476.889)" fill="#1d1d1b"/>
  </g>
</svg>
