<?xml version="1.0" encoding="utf-8"?>
<!-- Generator: Adobe Illustrator 25.2.3, SVG Export Plug-In . SVG Version: 6.00 Build 0)  -->
<svg version="1.1" id="레이어_1" xmlns="http://www.w3.org/2000/svg" xmlns:xlink="http://www.w3.org/1999/xlink" x="0px"
	 y="0px" viewBox="0 0 32 32" style="enable-background:new 0 0 32 32;" xml:space="preserve">
<style type="text/css">
	.st0{fill:#FFE855;}
</style>
<path class="st0" d="M30.9,5.9C26.5,2.7,21.4,1,16,1C10.6,1,5.5,2.7,1.1,5.9C0.2,6.6,0,7.9,0.7,8.8c0.7,0.9,2,1.1,2.9,0.4
	C7.2,6.5,11.5,5.1,16,5.1c4.5,0,8.8,1.4,12.4,4.1c0.4,0.3,0.8,0.4,1.2,0.4c0.6,0,1.2-0.3,1.6-0.8C32,7.9,31.8,6.6,30.9,5.9z"/>
<path class="st0" d="M27.5,12.4C24.3,9.8,20.2,8.3,16,8.3S7.7,9.8,4.5,12.4c-0.9,0.7-1,2-0.3,2.9c0.4,0.5,1,0.7,1.6,0.7
	c0.5,0,0.9-0.2,1.3-0.5c2.5-2.1,5.7-3.2,8.9-3.2c3.2,0,6.4,1.1,8.9,3.2c0.9,0.7,2.2,0.6,2.9-0.3C28.5,14.4,28.4,13.1,27.5,12.4z"/>
<path class="st0" d="M16,15.6c-3.1,0-6,1.2-8.2,3.5C7,19.9,7,21.2,7.8,22c0.4,0.4,0.9,0.6,1.4,0.6c0.5,0,1.1-0.2,1.5-0.6
	c1.4-1.5,3.3-2.3,5.3-2.3s3.9,0.8,5.3,2.3c0.8,0.8,2.1,0.8,2.9,0.1c0.8-0.8,0.8-2.1,0.1-2.9C22,16.8,19.1,15.6,16,15.6z"/>
<path class="st0" d="M16,23c-2.2,0-4,1.8-4,4c0,2.2,1.8,4,4,4c2.2,0,4-1.8,4-4C20,24.8,18.2,23,16,23z"/>
</svg>
