<?xml version="1.0" encoding="utf-8"?>
<!-- Generator: Adobe Illustrator 24.1.2, SVG Export Plug-In . SVG Version: 6.00 Build 0)  -->
<svg version="1.1" xmlns="http://www.w3.org/2000/svg" xmlns:xlink="http://www.w3.org/1999/xlink" x="0px" y="0px"
	 viewBox="0 0 32 24" style="enable-background:new 0 0 32 24;" xml:space="preserve">
<style type="text/css">
	.st0{fill:none;stroke:#000000;stroke-width:2;stroke-miterlimit:10;}
	.st1{stroke:#000000;stroke-width:2;stroke-miterlimit:10;}
	.st2{stroke:#FFFFFF;stroke-miterlimit:10;}
	.st3{fill:none;stroke:#000000;stroke-miterlimit:10;}
	.st4{fill:#FFFFFF;stroke:#000000;stroke-miterlimit:10;}
	.st5{fill:#040000;}
	.st6{fill:#333333;}
	.st7{fill:#0F4C81;}
	.st8{fill:#555555;}
	.st9{opacity:0.3;fill:#040000;enable-background:new    ;}
	.st10{fill:#EFEFEF;}
	.st11{fill:#EBEBEB;}
	.st12{fill:#FFFFFF;}
	.st13{fill:#089E08;}
	.st14{fill:#087F08;}
	.st15{fill:#021D34;}
	.st16{fill:#BCBCBC;}
	.st17{fill:#FFFFFF;stroke:#555555;stroke-width:0.32;stroke-miterlimit:10;}
	.st18{fill:#777777;}
</style>
<g id="레이어_2">
	
		<image style="overflow:visible;" width="255" height="198" xlink:href="2404B82B.jpg"  transform="matrix(0.2139 0 0 0.2139 173.3756 75.3347)">
	</image>
</g>
<g id="레이어_1">
	<g>
		<path class="st0" d="M405.2-127.8c0,5.7-4.6,10.2-10.2,10.2s-10.2-4.6-10.2-10.2S389.4-138,395-138v-5.9c-8.8,0-16,7.2-16,16
			s7.2,16,16,16s16-7.2,16-16L405.2-127.8L405.2-127.8z"/>
		<path class="st1" d="M398-146.9v5.9c5.6,0,10.2,4.5,10.2,10.1h5.8C414-139.8,406.9-146.9,398-146.9z"/>
	</g>
	<g>
		<path class="st1" d="M401.1-86.9c0,4.9-3.9,8.8-8.6,8.8c-4.8,0-8.6-4-8.6-8.8s3.9-8.8,8.6-8.8v-5.1c-7.4,0-13.5,6.2-13.5,13.8
			s6,13.8,13.5,13.8S406-79.4,406-87L401.1-86.9C401.1-87,401.1-87,401.1-86.9z"/>
		<path class="st1" d="M397.5-105.2v5.1c4.7,0,8.5,3.9,8.6,8.7h4.9C411-99,405-105.2,397.5-105.2z"/>
	</g>
	<path class="st2" d="M321.3-142.7h-28.9c-0.9,0-1.6,0.7-1.6,1.6v18.6c0,0.9,0.7,1.6,1.6,1.6h9.6l-0.7,6.2h-1.4
		c-0.9,0-1.7,0.8-1.7,1.7v0.6c0,0.9,0.8,1.7,1.7,1.7h12.6c0.9,0,1.7-0.8,1.7-1.7v-0.6c0-0.9-0.8-1.7-1.7-1.7h-1.2l-0.7-6.2h10.6
		c0.9,0,1.6-0.7,1.6-1.6v-18.6C322.8-142,322.1-142.7,321.3-142.7z M319.5-124h-25.1v-15.6h25.1V-124z"/>
	<path class="st2" d="M313.7-99.8h-18c-0.6,0-1,0.4-1,1v11.6c0,0.5,0.4,1,1,1h6l-0.4,3.9h-0.9c-0.6,0-1.1,0.5-1.1,1.1v0.4
		c0,0.6,0.5,1.1,1.1,1.1h7.9c0.6,0,1.1-0.5,1.1-1.1v-0.4c0-0.6-0.5-1.1-1.1-1.1h-0.8l-0.4-3.9h6.6c0.6,0,1-0.4,1-1v-11.6
		C314.7-99.3,314.2-99.8,313.7-99.8z M312.6-88.1h-15.7v-9.7h15.7V-88.1z"/>
	<g>
		<rect x="369.7" y="-143.9" class="st2" width="0" height="1.1"/>
		<rect x="334.1" y="-140.6" class="st3" width="27.8" height="22.4"/>
		<rect x="332" y="-143.2" class="st4" width="5" height="5"/>
		<rect x="358.9" y="-143.2" class="st4" width="5" height="5"/>
		<rect x="332" y="-120.8" class="st4" width="5" height="5"/>
		<rect x="358.9" y="-120.8" class="st4" width="5" height="5"/>
		<polygon points="351.4,-131.9 351.4,-135.9 338.7,-135.9 338.7,-126.8 344.7,-126.8 344.7,-122.8 357.4,-122.8 357.4,-131.9 		"/>
	</g>
	<rect x="53.8" y="41.1" class="st2" width="0" height="0.6"/>
	<g>
		<polygon points="123.9,93.5 120.3,93.5 110.9,103.5 120.3,113.5 123.9,113.5 114.5,103.5 		"/>
		<polygon points="121.5,103.5 130.9,93.5 127.4,93.5 118,103.5 127.4,113.5 130.9,113.5 		"/>
	</g>
	<g>
		<path d="M355.1,56.4L355.1,56.4c-0.2,0.2-0.3,0.3-0.3,0.6v12.9c0,0.4-0.4,0.7-0.9,0.7h-24.7c-0.5,0-0.9-0.3-0.9-0.7V57.4
			c0-0.2-0.1-0.4-0.3-0.6l0,0c-0.6-0.4-1.5-0.1-1.5,0.6v14c0,0.4,0.4,0.7,0.9,0.7h28.3c0.5,0,0.9-0.3,0.9-0.7V57
			C356.6,56.4,355.7,56,355.1,56.4z"/>
		<path d="M355,48.2h-26.8c-0.9,0-1.6,0.6-1.6,1.4v1.1v1.4c0,0.4,0.2,0.8,0.5,1c0.4,0.3,0.8,0.6,1.2,0.9c2.9,2.2,4.3,3.3,9.7,7.3
			l2.2,1.6c0.5,0.4,1.4,0.4,1.9,0l12.7-9.4l1.2-0.9c0.4-0.3,0.5-0.6,0.5-1v-1.4v-0.8C356.6,48.8,355.9,48.2,355,48.2z M354.3,52.1
			l-12,8.9c-0.6,0.4-1.5,0.4-2.1,0c-3.5-2.7-7.8-5.9-11.3-8.5c-0.3-0.3-0.5-0.6-0.5-1v-0.3c0-0.8,0.7-1.4,1.6-1.4h23.3
			c0.9,0,1.6,0.6,1.6,1.4C354.8,51.5,354.6,51.8,354.3,52.1z"/>
	</g>
	<g>
		<rect x="255.3" y="-137.9" width="11.3" height="5"/>
		<rect x="255.3" y="-130.4" width="20" height="5"/>
		<rect x="261.4" y="-122.9" width="13.8" height="5"/>
	</g>
	<path class="st5" d="M389.2-14.9c0,0-0.3-0.1-1-0.2c-0.8-0.1-1,0.7-1,0.7l-1.4,13.3c-1,4.7-5.2,4-5.2,4c-4.6-0.5-4.3-5.3-4.3-5.3
		l1.8-16.2c0.6-2.8,3-2.4,3-2.4c2.6,0.6,2.4,3,2.4,3l-1.6,14.3c0,0-0.1,0.4-0.6,0.4S380.8-4,380.8-4s1-9.8,1.1-10.8
		s-0.4-1.2-0.4-1.2s-0.1-0.2-1.1-0.3c-1-0.1-1,0.8-1,0.8l-1.1,11c0,0-1.3,4.1,2.5,4.6s3.8-3.5,3.8-3.5l1.4-14.2
		c0.3-6.2-4.5-6.1-4.5-6.1c-6.1-0.3-5.8,4.5-5.8,4.5L373.9-3c0,0-1.9,7.3,6.3,8.5c8.1,1.2,8.2-6.3,8.2-6.3s1.3-12,1.4-13
		C389.7-14.6,389.2-14.9,389.2-14.9z"/>
	<g>
		<path class="st6" d="M37.3,23.2c0,1,0.8,1.9,1.9,1.9h17.5c1.2,0,2.2-1,2.2-2.2V2.8H37.3V23.2L37.3,23.2z M53.1,7.2
			c0-0.4,0.3-0.8,0.7-0.8s0.7,0.3,0.7,0.8v13.4c0,0.4-0.3,0.8-0.7,0.8s-0.7-0.3-0.7-0.8V7.2z M47.6,7.2c0-0.4,0.3-0.8,0.7-0.8
			S49,6.7,49,7.2v13.4c0,0.4-0.3,0.8-0.7,0.8s-0.7-0.3-0.7-0.8V7.2z M42.1,7.2c0-0.4,0.3-0.8,0.7-0.8s0.7,0.3,0.7,0.8v13.4
			c0,0.4-0.3,0.8-0.7,0.8s-0.7-0.3-0.7-0.8V7.2z"/>
		<path class="st6" d="M58.4-2.5h-5.1c-0.1-1.4-1.1-2.4-2.5-2.4h-5.2c-1.4,0-2.5,1.1-2.6,2.4h-5.1c-0.4,0-0.7,0.3-0.7,0.8v1.5
			c0,0.4,0.3,0.8,0.7,0.8h20.5c0.4,0,0.7-0.3,0.7-0.8v-1.5C59.2-2.1,58.8-2.5,58.4-2.5z"/>
	</g>
	<path d="M173.4,51.3l-0.8-1.1c-0.2-0.3-0.6-0.3-0.8,0l-4.3,5.9l-2.3-3.2c-0.2-0.3-0.6-0.3-0.8,0l-0.8,1.1c-0.2,0.3-0.2,0.8,0,1.1
		l3.5,4.8c0.2,0.2,0.4,0.3,0.6,0.2c0.1,0,0.1-0.1,0.2-0.2l5.4-7.4C173.6,52,173.6,51.6,173.4,51.3z"/>
	<path class="st7" d="M90.1-3l0.1,31.3c0,1.5,1.9,2.3,2.9,1.2l16-15.3c1.2-1.2,1.2-3.1,0-4.3L92.9-5.5c-1.1-1-2.9-0.3-2.9,1.2
		L90.1-3z"/>
	<path class="st5" d="M311,53h-8.7l-4-3.9h-9.4c-2.2,0-4,1.7-4,3.8v3.9v2v8.6c0,2.1,1.8,3.8,4,3.8H311c2.2,0,4-1.7,4-3.8V56.8
		C314.9,54.7,313.2,53,311,53z M305.1,61.6c0,0.4-0.4,0.8-0.8,0.8h-3.4v3.2c0,0.4-0.4,0.8-0.8,0.8h-0.3c-0.4,0-0.8-0.3-0.8-0.8v-3.2
		h-3.4c-0.4,0-0.8-0.3-0.8-0.8v-0.3c0-0.4,0.4-0.8,0.8-0.8h3.4v-3.2c0-0.4,0.4-0.8,0.8-0.8h0.3c0.4,0,0.8,0.3,0.8,0.8v3.2h3.4
		c0.4,0,0.8,0.3,0.8,0.8V61.6z"/>
	<g>
		<path class="st8" d="M85.4,114.4V98.6H89c0.5,0,0.7-0.7,0.4-1.1l-5-5.8c-0.4-0.4-1-0.4-1.4,0l-5,5.8c-0.3,0.4-0.1,1,0.4,1h0.4h3.4
			v15.7c0,0.6,0.6,1.1,1.3,1.1h0.4C84.8,115.5,85.4,115,85.4,114.4z"/>
		<path class="st8" d="M92.5,92.6v15.7h-3.6c-0.5,0-0.7,0.7-0.4,1.1l5,5.8c0.4,0.4,1,0.4,1.4,0l5-5.8c0.3-0.4,0.1-1-0.4-1h-0.4h-3.4
			V92.6c0-0.6-0.6-1.1-1.3-1.1H94C93.1,91.5,92.5,91.9,92.5,92.6z"/>
	</g>
	<path class="st7" d="M-102-67.5L-102-67.5h-0.4h-1.4l0,0h-5.3l0,0h-3.7c-0.6,0-0.8,0.8-0.5,1.1l5.1,6.4c0.4,0.4,1,0.4,1.4,0
		l5.1-6.4C-101.2-66.8-101.5-67.5-102-67.5z"/>
	<g>
		<circle class="st9" cx="18.9" cy="-52.6" r="11"/>
		<path class="st10" d="M24.2-53.1l-7.4-4.5c-0.4-0.2-0.9,0-0.9,0.5v9c0,0.4,0.5,0.7,0.9,0.5l7.4-4.5C24.6-52.3,24.6-52.9,24.2-53.1
			z"/>
	</g>
	<path class="st10" d="M313.2,14.3l-5.6-5.6c1.8-1.9,2.9-4.4,2.9-7.2C310.5-4.3,305.8-9,300-9s-10.5,4.7-10.5,10.5S294.2,12,300,12
		c2.7,0,5.1-1,6.9-2.6l5.6,5.6L313.2,14.3z M290.5,1.5c0-5.2,4.3-9.5,9.5-9.5s9.5,4.3,9.5,9.5S305.2,11,300,11
		C294.7,11,290.5,6.7,290.5,1.5z"/>
	<path class="st10" d="M278.6,2.3L273-3.3c1.8-1.9,2.8-4.4,2.8-7.2c0-5.8-4.7-10.5-10.5-10.5s-10.5,4.7-10.5,10.5S259.5,0,265.3,0
		c2.7,0,5.1-1,6.9-2.6l5.6,5.6L278.6,2.3z M255.8-10.5c0-5.2,4.3-9.5,9.5-9.5c5.2,0,9.5,4.3,9.5,9.5S270.5-1,265.3-1
		C260.1-1,255.8-5.2,255.8-10.5z"/>
	<path class="st10" d="M304.7-16.1l-4.3-4.2c1.4-1.6,2.3-3.6,2.3-5.9c0-4.9-4-8.9-9-8.9s-9,4-9,8.9s4,8.9,9,8.9c2.1,0,4.1-0.7,5.7-2
		l4.3,4.3L304.7-16.1z M293.7-18.7c-4.2,0-7.6-3.4-7.6-7.5s3.4-7.5,7.6-7.5s7.6,3.4,7.6,7.5S297.9-18.7,293.7-18.7z"/>
	<path class="st11" d="M118.3-48.1L106.5-60l11.8-11.8c0.7-0.7,0.7-1.9,0-2.6s-1.9-0.7-2.6,0l-11.8,11.8L92-74.4
		c-0.7-0.7-1.9-0.7-2.6,0s-0.7,1.9,0,2.6L101.2-60L89.4-48.1c-0.7,0.7-0.7,1.9,0,2.6c0.7,0.7,1.9,0.7,2.6,0l11.9-11.8l11.9,11.8
		c0.7,0.7,1.9,0.7,2.6,0S119.1-47.4,118.3-48.1z"/>
	<g>
		<path class="st12" d="M139.4-126.7h-10c-2.8,0-5-2.2-5-5v-10c0-2.8,2.2-5,5-5h10c2.8,0,5,2.2,5,5v10
			C144.4-128.9,142.1-126.7,139.4-126.7z"/>
		<path class="st11" d="M138.4-127.7h-8c-2.8,0-5-2.2-5-5v-8c0-2.8,2.2-5,5-5h8c2.8,0,5,2.2,5,5v8
			C143.4-129.9,141.1-127.7,138.4-127.7z"/>
		<path class="st12" d="M141.1-140.4l-1-1.3c-0.3-0.4-0.8-0.4-1.1,0l-6,7l-3.3-3.8c-0.3-0.4-0.8-0.4-1.1,0l-1.1,1.3
			c-0.3,0.4-0.3,0.9,0,1.3l4.9,5.7c0.2,0.3,0.6,0.3,0.8,0.2c0.1,0,0.2-0.1,0.3-0.2l7.6-8.9C141.4-139.5,141.4-140,141.1-140.4z"/>
	</g>
	<g>
		<path class="st12" d="M172.6-126.7h-10c-2.8,0-5-2.2-5-5v-10c0-2.8,2.2-5,5-5h10c2.8,0,5,2.2,5,5v10
			C177.6-128.9,175.4-126.7,172.6-126.7z"/>
		<path class="st13" d="M167.1-127.7c-0.3,0.1-0.7,0.1-1-0.2l-5.4-5.8c-0.4-0.3-0.3-2.8,0-3.1l0.8,0.6c0.4-0.4,0.9-0.4,1.3,0
			l3.9,3.8l7.2-7.1c0.4-0.4,0.3-1,0.6-0.6l2,1.9c0,0,0.1,0.1,0.1,0.3v-2.8c0-2.8-2.2-5-5-5h-8c-2.8,0-5,2.2-5,5v8c0,2.8,2.2,5,5,5h8
			c0.1,0,0.2,0,0.3,0C170.6-127.7,167.2-127.8,167.1-127.7z"/>
		<path class="st14" d="M176.6-132.7v-5.2c0-0.1-0.1-0.3-0.1-0.3l-2-1.9c-0.4-0.4-0.3,0.3-0.6,0.6l-7.2,7.1l-3.9-3.8
			c-0.4-0.4-0.9-0.4-1.3,0l-0.8-0.6c-0.4,0.4-0.4,2.8,0,3.1l5.4,5.8c0.3,0.3,0.7,0.3,1,0.2c0.1,0,3.6,0.1,4.8,0
			C174.5-127.8,176.6-130,176.6-132.7z"/>
		<path class="st12" d="M174.4-140.3l-1.1-1.3c-0.3-0.4-0.8-0.4-1.1,0l-6,7l-3.3-3.8c-0.3-0.4-0.8-0.4-1.1,0l-1.1,1.3
			c-0.3,0.4-0.3,0.9,0,1.3l4.9,5.7c0.2,0.3,0.6,0.3,0.8,0.2c0.1,0,0.2-0.1,0.3-0.2l7.6-8.9C174.7-139.4,174.7-140,174.4-140.3z"/>
	</g>
	<rect x="-107.4" y="45.7" class="st7" width="32.7" height="32.7"/>
	<g>
		<path class="st12" d="M205.7-126.7h-10c-2.8,0-5-2.2-5-5v-10c0-2.8,2.2-5,5-5h10c2.8,0,5,2.2,5,5v10
			C210.7-128.9,208.5-126.7,205.7-126.7z"/>
		<path class="st7" d="M200.1-127.8c-0.3,0.1-0.7,0.1-1-0.2l-5.4-5.8c-0.4-0.3-0.3-2.8,0-3.1l0.9,0.6c0.4-0.4,0.9-0.4,1.3,0l3.9,3.8
			l7.2-7.1c0.4-0.4,0.3-1,0.6-0.6l2,1.9c0,0,0.1,0.1,0.1,0.3v-2.8c0-2.8-2.2-5-5-5h-8c-2.8,0-5,2.2-5,5v8c0,2.8,2.2,5,5,5h8
			c0.1,0,0.2,0,0.3,0C203.7-127.7,200.2-127.8,200.1-127.8z"/>
		<path class="st15" d="M209.7-132.7v-5.2c0-0.1-0.1-0.3-0.1-0.3l-2-1.9c-0.4-0.4-0.3,0.3-0.6,0.6l-7.2,7.1l-3.9-3.8
			c-0.4-0.4-0.9-0.4-1.3,0l-0.8-0.6c-0.4,0.4-0.4,2.8,0,3.1l5.4,5.8c0.3,0.3,0.7,0.3,1,0.2c0.1,0,3.6,0.1,4.8,0
			C207.6-127.9,209.7-130,209.7-132.7z"/>
		<path class="st12" d="M207.5-140.4l-1.1-1.3c-0.3-0.4-0.8-0.4-1.1,0l-6,7l-3.3-3.8c-0.3-0.4-0.8-0.4-1.1,0l-1.1,1.3
			c-0.3,0.4-0.3,0.9,0,1.3l4.9,5.7c0.2,0.3,0.6,0.3,0.8,0.2c0.1,0,0.2-0.1,0.3-0.2l7.6-8.9C207.8-139.5,207.8-140,207.5-140.4z"/>
	</g>
	<path class="st11" d="M-72,122c0.5-0.1,1-0.6,1.1-1.1s-0.3-0.9-0.9-0.9l-4,0.5l1-4.2c0.1-0.5-0.2-1-0.7-1s-1.1,0.4-1.2,0.9
		l-1.1,4.5l-4.4,0.5l1.3-5.3c0.1-0.5-0.2-1-0.7-1s-1.1,0.4-1.2,0.9l-1.4,5.7l-5.3,0.7c-0.5,0.1-1,0.6-1.1,1.1s0.3,0.9,0.9,0.9
		l4.9-0.6l-0.9,3.7l-4.3,0.4c-0.5,0.1-1,0.6-1.1,1.1s0.3,0.9,0.9,0.9l4-0.5l-1,4.2c-0.1,0.5,0.2,1,0.7,1s1.1-0.4,1.2-0.9l1.1-4.5
		l4.4-0.5l-1.3,5.4c-0.1,0.5,0.2,1,0.7,1s1.1-0.4,1.2-0.9l1.4-5.7l5.2-0.6c0.5-0.1,1-0.6,1.1-1.1l0,0c0.1-0.5-0.3-0.9-0.9-0.9
		l-4.9,0.6l0.9-3.7L-72,122z M-79.2,126.4l-4.4,0.5l0.9-3.7l4.4-0.5L-79.2,126.4z"/>
	<path class="st16" d="M39.9,228.4L26,217.3l13.9-11.2c0.2-0.2,0.2-0.6,0-0.8l0,0c-0.2-0.2-0.7-0.2-0.9,0l-14.5,11.5l0,0l-0.5,0.3
		l0.5,0.3l0,0l0,0l0,0L38.9,229c0.3,0.2,0.8,0.2,1,0C40.1,229,40.1,228.6,39.9,228.4z"/>
	<g>
		<circle class="st17" cx="-238" cy="-63.6" r="25"/>
		<polygon class="st18" points="-227,-64.3 -237.3,-64.3 -237.3,-74.6 -238.7,-74.6 -238.7,-64.3 -249,-64.3 -249,-62.9 
			-238.7,-62.9 -238.7,-52.6 -237.3,-52.6 -237.3,-62.9 -227,-62.9 		"/>
	</g>
	<g>
		<path class="st6" d="M138.3-8.2l-0.7,6.6c0,0-0.1,0.8,0.4,1.2s1.1,0.4,1.1,0.4l6.6-0.7l16.4-16.4l-7.5-7.5L138.3-8.2z"/>
		<path class="st6" d="M166.7-25.6l-3.5-3.6c0,0-0.7-1-2.3-0.7c-1.5,0.2-1.7,0.8-1.7,0.8l-3.3,3.2l7.5,7.6l3.3-3.4
			c0,0,0.9-0.6,0.8-2.1C167.5-25.2,166.7-25.6,166.7-25.6z"/>
	</g>
	<g id="레이어_2_1_">
		<g>
			<polygon class="st4" points="45.6,-182.3 45.6,-185.1 43,-185.1 43,-183.6 31.4,-183.6 31.4,-185.1 28.8,-185.1 28.8,-182.3 
				29.9,-182.3 29.9,-173.1 28.8,-173.1 28.8,-170.3 31.4,-170.3 31.4,-171.7 43,-171.7 43,-170.3 45.6,-170.3 45.6,-173.1 
				44.6,-173.1 44.6,-182.3 			"/>
			<polygon points="39,-179 39,-181.1 32.3,-181.1 32.3,-176.3 35.5,-176.3 35.5,-174.1 42.2,-174.1 42.2,-179 			"/>
		</g>
	</g>
	<path class="st16" d="M119.9,228.4L106,217.3l13.9-11.2c0.2-0.2,0.2-0.6,0-0.8l0,0c-0.2-0.2-0.7-0.2-0.9,0l-14.5,11.5l0,0l-0.5,0.3
		l0.5,0.3l0,0l0,0l0,0l14.4,11.5c0.3,0.2,0.8,0.2,1,0C120.1,229,120.1,228.6,119.9,228.4z"/>
	<path class="st16" d="M75,221.8l-14.9-12l14.9-12c0.4-0.3,1.1-0.3,1.4,0.2l0,0c0.3,0.4,0.3,1.1-0.2,1.4l-12.9,10.4l12.9,10.4
		c0.4,0.3,0.5,1,0.2,1.4v0C76.1,222.1,75.4,222.1,75,221.8z"/>
	<g>
		<g>
			<path class="st16" d="M262.2,107.4c-2.7,0-5.1,1.4-6.4,3.6l2.5,2.5c0.6-1.6,2.2-2.7,4-2.7c1.7,0,3.2,1.1,3.9,2.6l2.4-2.5
				C267.2,108.8,264.9,107.4,262.2,107.4z"/>
			<path class="st16" d="M262.2,100.7c-4.7,0-8.8,2.4-10.6,6l2.5,2.6c0.9-2.9,4.2-5.1,8.1-5.1c3.9,0,7.2,2.2,8.1,5.1l2.5-2.6
				C271,103.2,266.9,100.7,262.2,100.7z"/>
			<path class="st16" d="M262.2,94c-6.8,0-12.7,3.4-15,8.2l2.5,2.6c1.3-4.2,6.4-7.4,12.5-7.4c6.1,0,11.2,3.1,12.5,7.4l2.5-2.6
				C274.8,97.4,269,94,262.2,94z"/>
			<path class="st16" d="M262.3,114.2c-0.9,0-1.7,0.7-1.8,1.6c0,0.1,0,0.2,0,0.3c0,0,0,0.1,0,0.1c0,0.5,0.2,0.9,0.5,1.2
				c0.3,0.3,0.8,0.6,1.3,0.6c0.5,0,1-0.2,1.4-0.6c0.3-0.3,0.5-0.7,0.5-1.2c0,0,0-0.1,0-0.1c0-0.2,0-0.4-0.1-0.5
				C263.9,114.8,263.1,114.2,262.3,114.2z"/>
		</g>
		<g>
			<path class="st7" d="M262.2,107.4c-2.7,0-5.1,1.4-6.4,3.6l2.5,2.5c0.6-1.6,2.2-2.7,4-2.7c1.7,0,3.2,1.1,3.9,2.6l2.4-2.5
				C267.2,108.8,264.9,107.4,262.2,107.4z"/>
			<path class="st7" d="M262.2,100.7c-4.7,0-8.8,2.4-10.6,6l2.5,2.6c0.9-2.9,4.2-5.1,8.1-5.1c3.9,0,7.2,2.2,8.1,5.1l2.5-2.6
				C271,103.2,266.9,100.7,262.2,100.7z"/>
			<path class="st7" d="M262.3,114.2c-0.9,0-1.7,0.7-1.8,1.6c0,0.1,0,0.2,0,0.3c0,0,0,0.1,0,0.1c0,0.5,0.2,0.9,0.5,1.2
				c0.3,0.3,0.8,0.6,1.3,0.6c0.5,0,1-0.2,1.4-0.6c0.3-0.3,0.5-0.7,0.5-1.2c0,0,0-0.1,0-0.1c0-0.2,0-0.4-0.1-0.5
				C263.9,114.8,263.1,114.2,262.3,114.2z"/>
		</g>
	</g>
	<path class="st7" d="M276.5,112.7h-0.6c0-0.1,0-0.3,0-0.4c0-1.7-1.3-3.1-2.8-3.1s-2.8,1.4-2.8,3.1c0,0.1,0,0.3,0,0.4h-0.6
		c-0.4,0-0.7,0.3-0.7,0.7v5c0,0.4,0.3,0.7,0.7,0.7h6.7c0.4,0,0.7-0.3,0.7-0.7v-5C277.2,113,276.9,112.7,276.5,112.7z M273.2,110.1
		c1.1,0,2,1,2,2.2c0,0.2,0,0.3,0,0.4h-3.9c0-0.1,0-0.3,0-0.4C271.2,111,272.1,110.1,273.2,110.1z M276.5,118.1
		c0,0.3-0.2,0.5-0.5,0.5h-5.7c-0.3,0-0.5-0.2-0.5-0.5v-4.3c0-0.3,0.2-0.5,0.5-0.5h5.7c0.3,0,0.5,0.2,0.5,0.5V118.1z"/>
	<path class="st7" d="M22.2,90h-0.6c0-0.1,0-0.3,0-0.4c0-1.7-1.3-3.1-2.8-3.1s-2.8,1.4-2.8,3.1c0,0.1,0,0.3,0,0.4h-0.6
		c-0.4,0-0.7,0.3-0.7,0.7v5c0,0.4,0.3,0.7,0.7,0.7h6.7c0.4,0,0.7-0.3,0.7-0.7v-5C22.9,90.4,22.6,90,22.2,90z M18.9,87.4
		c1.1,0,2,1,2,2.2c0,0.2,0,0.3,0,0.4h-3.9c0-0.1,0-0.3,0-0.4C16.9,88.4,17.8,87.4,18.9,87.4z M22.3,95.4c0,0.3-0.2,0.5-0.5,0.5H16
		c-0.3,0-0.5-0.2-0.5-0.5v-4.3c0-0.3,0.2-0.5,0.5-0.5h5.7c0.3,0,0.5,0.2,0.5,0.5V95.4z"/>
	<g>
		<ellipse class="st7" cx="16.1" cy="22.6" rx="1.3" ry="1.4"/>
		<path class="st7" d="M11.3,20l-1.1-0.5C9.9,19.3,9.8,19,10,18.8c0.6-1,2.4-3.4,6.3-3.4c3.9,0,5.6,2.5,6.1,3.5
			c0.1,0.2,0,0.5-0.2,0.6L21,19.9c-0.2,0.1-0.4,0-0.5-0.2c-0.4-0.7-1.5-2.2-4.2-2.2c-2.8,0-4.1,1.6-4.5,2.3C11.7,20,11.5,20,11.3,20
			z"/>
		<path class="st7" d="M25.3,15.3c-0.2,0.1-0.5,0.1-0.6-0.2c-0.8-1.3-3.6-5.4-8.5-5.4c-4.9,0-8.1,3.8-9,5C7,15,6.7,15,6.5,14.8
			l-0.9-0.6c-0.2-0.2-0.3-0.5-0.1-0.8c1.1-1.5,4.8-5.9,10.7-5.9c6,0,9.3,4.9,10.3,6.5c0.2,0.3,0.1,0.6-0.2,0.8L25.3,15.3z"/>
		<path class="st16" d="M2.2,10.1L1.4,9.6C1.2,9.5,1.1,9.1,1.2,8.8c1.2-2,6.1-8.8,15-8.8c8.9,0,13.6,6.8,14.8,8.8
			c0.2,0.3,0.1,0.7-0.2,0.8L30,10.1c-0.3,0.2-0.6,0.1-0.7-0.2c-1.1-1.8-5.2-7.7-13-7.7C8.4,2.2,4.1,8.2,3,10
			C2.8,10.2,2.5,10.3,2.2,10.1z"/>
	</g>
	<g>
		<ellipse class="st7" cx="50.3" cy="65.6" rx="1.3" ry="1.4"/>
		<path class="st7" d="M45.4,62.9l-1.1-0.5c-0.2-0.1-0.3-0.4-0.2-0.6c0.6-1,2.4-3.4,6.3-3.4c3.9,0,5.6,2.5,6.1,3.5
			c0.1,0.2,0,0.5-0.2,0.6l-1.2,0.5c-0.2,0.1-0.4,0-0.5-0.2c-0.4-0.7-1.5-2.2-4.2-2.2c-2.8,0-4.1,1.6-4.5,2.3
			C45.8,62.9,45.6,63,45.4,62.9z"/>
		<path class="st16" d="M59.5,58.2c-0.2,0.1-0.5,0.1-0.6-0.2c-0.8-1.3-3.6-5.4-8.5-5.4c-4.9,0-8.1,3.8-9,5c-0.2,0.2-0.5,0.3-0.7,0.1
			l-0.9-0.6c-0.2-0.2-0.3-0.5-0.1-0.8c1.1-1.5,4.8-5.9,10.7-5.9c6,0,9.3,4.9,10.3,6.5c0.2,0.3,0.1,0.6-0.2,0.8L59.5,58.2z"/>
		<path class="st16" d="M36.4,53.1l-0.8-0.5c-0.3-0.2-0.4-0.6-0.2-0.9c1.2-2,6.1-8.8,15-8.8c8.9,0,13.6,6.8,14.8,8.8
			c0.2,0.3,0.1,0.7-0.2,0.8L64.2,53c-0.3,0.2-0.6,0.1-0.7-0.2c-1.1-1.8-5.2-7.7-13-7.7c-7.9,0-12.2,6-13.3,7.7
			C37,53.1,36.7,53.2,36.4,53.1z"/>
	</g>
	<g>
		<ellipse class="st7" cx="-68.6" cy="-0.8" rx="1.3" ry="1.4"/>
		<path class="st7" d="M-73.5-3.4L-74.6-4c-0.2-0.1-0.3-0.4-0.2-0.6c0.6-1,2.4-3.4,6.3-3.4c3.9,0,5.6,2.5,6.1,3.5
			c0.1,0.2,0,0.5-0.2,0.6l-1.2,0.5c-0.2,0.1-0.4,0-0.5-0.2c-0.4-0.7-1.5-2.2-4.2-2.2c-2.8,0-4.1,1.6-4.5,2.3
			C-73.1-3.4-73.3-3.4-73.5-3.4z"/>
		<path class="st7" d="M-59.4-8.1C-59.7-7.9-60-8-60.1-8.2c-0.8-1.3-3.6-5.4-8.5-5.4c-4.9,0-8.1,3.8-9,5c-0.2,0.2-0.5,0.3-0.7,0.1
			l-0.9-0.6c-0.2-0.2-0.3-0.5-0.1-0.8c1.1-1.5,4.8-5.9,10.7-5.9c6,0,9.3,4.9,10.3,6.5c0.2,0.3,0.1,0.6-0.2,0.8L-59.4-8.1z"/>
		<path class="st7" d="M-82.5-13.3l-0.8-0.5c-0.3-0.2-0.4-0.6-0.2-0.9c1.2-2,6.1-8.8,15-8.8c8.9,0,13.6,6.8,14.8,8.8
			c0.2,0.3,0.1,0.7-0.2,0.8l-0.8,0.5c-0.3,0.2-0.6,0.1-0.7-0.2c-1.1-1.8-5.2-7.7-13-7.7c-7.9,0-12.2,6-13.3,7.7
			C-81.9-13.2-82.3-13.1-82.5-13.3z"/>
	</g>
	<g>
		<ellipse class="st7" cx="83.9" cy="66.2" rx="1.3" ry="1.4"/>
		<path class="st16" d="M79.1,63.6L77.9,63c-0.2-0.1-0.3-0.4-0.2-0.6c0.6-1,2.4-3.4,6.3-3.4c3.9,0,5.6,2.5,6.1,3.5
			c0.1,0.2,0,0.5-0.2,0.6l-1.2,0.5c-0.2,0.1-0.4,0-0.5-0.2c-0.4-0.7-1.5-2.2-4.2-2.2c-2.8,0-4.1,1.6-4.5,2.3
			C79.5,63.6,79.2,63.6,79.1,63.6z"/>
		<path class="st16" d="M93.1,58.9c-0.2,0.1-0.5,0.1-0.6-0.2c-0.8-1.3-3.6-5.4-8.5-5.4c-4.9,0-8.1,3.8-9,5c-0.2,0.2-0.5,0.3-0.7,0.1
			l-0.9-0.6c-0.2-0.2-0.3-0.5-0.1-0.8c1.1-1.5,4.8-5.9,10.7-5.9c6,0,9.3,4.9,10.3,6.5c0.2,0.3,0.1,0.6-0.2,0.8L93.1,58.9z"/>
		<path class="st16" d="M70,53.7l-0.8-0.5c-0.3-0.2-0.4-0.6-0.2-0.9c1.2-2,6.1-8.8,15-8.8c8.9,0,13.6,6.8,14.8,8.8
			c0.2,0.3,0.1,0.7-0.2,0.8l-0.8,0.5c-0.3,0.2-0.6,0.1-0.7-0.2c-1.1-1.8-5.2-7.7-13-7.7c-7.9,0-12.2,6-13.3,7.7
			C70.6,53.8,70.3,53.9,70,53.7z"/>
	</g>
</g>
</svg>
